<?xml version="1.0" encoding="UTF-8" standalone="no"?>
<!-- Created with Inkscape (http://www.inkscape.org/) -->

<svg
   xmlns:dc="http://purl.org/dc/elements/1.1/"
   xmlns:cc="http://creativecommons.org/ns#"
   xmlns:rdf="http://www.w3.org/1999/02/22-rdf-syntax-ns#"
   xmlns:svg="http://www.w3.org/2000/svg"
   xmlns="http://www.w3.org/2000/svg"
   xmlns:sodipodi="http://sodipodi.sourceforge.net/DTD/sodipodi-0.dtd"
   xmlns:inkscape="http://www.inkscape.org/namespaces/inkscape"
   version="1.1"
   id="svg2"
   xml:space="preserve"
   width="817.33331"
   height="267.41599"
   viewBox="0 0 817.33331 267.41599"
   sodipodi:docname="logo_obeo_smartEA.svg"
   inkscape:version="0.92.4 (5da689c313, 2019-01-14)"><metadata
     id="metadata8"><rdf:RDF><cc:Work
         rdf:about=""><dc:format>image/svg+xml</dc:format><dc:type
           rdf:resource="http://purl.org/dc/dcmitype/StillImage" /><dc:title></dc:title></cc:Work></rdf:RDF></metadata><defs
     id="defs6"><clipPath
       clipPathUnits="userSpaceOnUse"
       id="clipPath18"><path
         d="M 0,200.562 H 613 V 0 H 0 Z"
         id="path16"
         inkscape:connector-curvature="0" /></clipPath></defs><sodipodi:namedview
     pagecolor="#ffffff"
     bordercolor="#666666"
     borderopacity="1"
     objecttolerance="10"
     gridtolerance="10"
     guidetolerance="10"
     inkscape:pageopacity="0"
     inkscape:pageshadow="2"
     inkscape:window-width="1920"
     inkscape:window-height="1009"
     id="namedview4"
     showgrid="false"
     inkscape:zoom="0.46615009"
     inkscape:cx="408.66666"
     inkscape:cy="133.70799"
     inkscape:window-x="-8"
     inkscape:window-y="-8"
     inkscape:window-maximized="1"
     inkscape:current-layer="g10" /><g
     id="g10"
     inkscape:groupmode="layer"
     inkscape:label="logo_obeo_smartEA"
     transform="matrix(1.3333333,0,0,-1.3333333,0,267.416)"><g
       id="g12"><g
         id="g14"
         clip-path="url(#clipPath18)"><g
           id="g20"
           transform="translate(101.0582,66.6031)"><path
             d="m 0,0 c -5.56,0 -10.794,1.361 -15.418,3.742 -1.633,0.843 -3.616,0.513 -4.915,-0.786 l -36.6,-36.6 c -1.843,-1.839 -1.612,-4.872 0.455,-6.453 15.662,-11.986 35.232,-19.122 56.478,-19.122 8.261,0 16.265,1.088 23.887,3.114 2.519,0.668 3.894,3.381 2.896,5.789 L 6.972,-2.488 C 6.257,-0.757 4.498,0.278 2.631,0.117 1.763,0.041 0.887,0 0,0"
             style="fill:#59c7bf;fill-opacity:1;fill-rule:nonzero;stroke:none"
             id="path22"
             inkscape:connector-curvature="0" /></g><g
           id="g24"
           transform="translate(121.8102,69.8397)"><path
             d="m 0,0 19.813,-47.827 c 0.994,-2.404 3.888,-3.357 6.136,-2.048 24.332,14.151 41.651,39.007 45.514,68.122 0.344,2.583 -1.635,4.896 -4.239,4.896 h -51.75 c -1.82,0 -3.468,-1.144 -4.022,-2.876 C 9.5,14.187 5.88,8.86 1.126,4.82 -0.266,3.641 -0.697,1.684 0,0"
             style="fill:#aee1da;fill-opacity:1;fill-rule:nonzero;stroke:none"
             id="path26"
             inkscape:connector-curvature="0" /></g><g
           id="g28"
           transform="translate(93.5973,136.6685)"><path
             d="m 0,0 v 51.749 c 0,2.607 -2.311,4.584 -4.892,4.24 -29.119,-3.865 -53.975,-21.182 -68.125,-45.514 -1.309,-2.249 -0.357,-5.142 2.047,-6.137 l 47.827,-19.812 c 1.683,-0.697 3.643,-0.262 4.82,1.126 4.041,4.754 9.368,8.378 15.449,10.326 C -1.144,-3.469 0,-1.818 0,0"
             style="fill:#0b7887;fill-opacity:1;fill-rule:nonzero;stroke:none"
             id="path30"
             inkscape:connector-curvature="0" /></g><g
           id="g32"
           transform="translate(67.2186,100.4427)"><path
             d="m 0,0 c 0,0.887 0.041,1.763 0.117,2.628 0.161,1.868 -0.874,3.625 -2.605,4.344 l -47.828,19.811 c -2.408,0.998 -5.121,-0.377 -5.793,-2.898 -2.022,-7.62 -3.11,-15.624 -3.11,-23.885 0,-21.246 7.136,-40.816 19.122,-56.478 1.581,-2.067 4.61,-2.294 6.453,-0.455 l 36.6,36.6 c 1.299,1.299 1.629,3.282 0.788,4.915 C 1.361,-10.794 0,-5.56 0,0"
             style="fill:#3da2b5;fill-opacity:1;fill-rule:nonzero;stroke:none"
             id="path34"
             inkscape:connector-curvature="0" /></g><g
           id="g36"
           transform="translate(189.5795,112.8083)"><path
             d="m 0,0 h -71.943 c -2.326,0 -4.212,1.886 -4.212,4.212 v 71.943 c 0,2.329 1.886,4.214 4.212,4.214 H 0 c 2.327,0 4.212,-1.885 4.212,-4.214 V 4.212 C 4.212,1.886 2.327,0 0,0"
             style="fill:#26479c;fill-opacity:1;fill-rule:nonzero;stroke:none"
             id="path38"
             inkscape:connector-curvature="0" /></g><g
           id="g40"
           transform="translate(263.4059,127.7929)"><path
             d="m 0,0 c -8.14,0 -13.612,4.985 -13.612,12.406 0,7.418 5.472,12.402 13.612,12.402 8.182,0 13.678,-4.984 13.678,-12.402 C 13.678,4.985 8.182,0 0,0 m 0,33.397 c -13.142,0 -23.056,-9.023 -23.056,-20.991 0,-11.968 9.914,-20.995 23.056,-20.995 13.184,0 23.126,9.027 23.126,20.995 0,11.968 -9.942,20.991 -23.126,20.991"
             style="fill:#0b7887;fill-opacity:1;fill-rule:nonzero;stroke:none"
             id="path42"
             inkscape:connector-curvature="0" /></g><g
           id="g44"
           transform="translate(312.616,127.0483)"><path
             d="M 0,0 H -8.434 V 10.807 H 0 c 4.024,0 6.731,-2.173 6.731,-5.405 C 6.731,2.17 4.024,0 0,0 m -8.434,26.295 h 7.386 c 3.351,0 5.875,-1.988 5.875,-4.627 0,-2.64 -2.524,-4.628 -5.875,-4.628 h -7.386 z m 17.671,-11.814 -0.926,0.246 0.87,0.385 c 2.499,0.814 5.195,4.273 5.195,7.867 0,5.889 -5.644,10.327 -13.128,10.327 h -17.079 c -1.15,0 -2.082,-0.933 -2.082,-2.086 V -4.925 c 0,-1.15 0.932,-2.083 2.082,-2.083 H 1.115 c 9.78,0 15.617,4.459 15.617,11.933 0,3.891 -3.502,8.568 -7.495,9.556"
             style="fill:#0b7887;fill-opacity:1;fill-rule:nonzero;stroke:none"
             id="path46"
             inkscape:connector-curvature="0" /></g><g
           id="g48"
           transform="translate(338.124,120.0398)"><path
             d="m 0,0 h 30.137 v 5.882 c 0,1.15 -0.933,2.079 -2.082,2.079 H 7.397 v 8.781 h 17.499 v 7.369 H 7.397 v 8.241 h 20.265 c 1.15,0 2.082,0.933 2.082,2.079 v 5.886 H 0 c -1.153,0 -2.086,-0.936 -2.086,-2.086 V 2.086 C -2.086,0.932 -1.153,0 0,0"
             style="fill:#0b7887;fill-opacity:1;fill-rule:nonzero;stroke:none"
             id="path50"
             inkscape:connector-curvature="0" /></g><g
           id="g52"
           transform="translate(396.5241,127.7543)"><path
             d="m 0,0 c -8.168,0 -13.654,4.999 -13.654,12.445 0,7.442 5.486,12.441 13.654,12.441 8.21,0 13.72,-4.999 13.72,-12.441 C 13.72,4.999 8.21,0 0,0 m 0.003,33.435 c -13.145,0 -23.059,-9.023 -23.059,-20.99 0,-11.968 9.914,-20.995 23.059,-20.995 13.181,0 23.123,9.027 23.123,20.995 0,11.967 -9.942,20.99 -23.123,20.99"
             style="fill:#0b7887;fill-opacity:1;fill-rule:nonzero;stroke:none"
             id="path54"
             inkscape:connector-curvature="0" /></g></g></g><text
       transform="matrix(1,0,0,-1,234.875,40.6445)"
       style="font-variant:normal;font-weight:normal;font-stretch:normal;font-size:95px;font-family:'Solomon Normal';-inkscape-font-specification:Solomon-Normal;writing-mode:lr-tb;fill:#26479c;fill-opacity:1;fill-rule:nonzero;stroke:none"
       id="text58"><tspan
         x="0 52.25 138.985 190.855 228.285 257.07001 306.565"
         y="0"
         sodipodi:role="line"
         id="tspan56">SmartEA</tspan></text>
</g></svg>